<?xml version="1.0" encoding="utf-8"?>
<!-- Generator: Adobe Illustrator 26.0.1, SVG Export Plug-In . SVG Version: 6.00 Build 0)  -->
<svg version="1.1" id="Layer_1" xmlns="http://www.w3.org/2000/svg" xmlns:xlink="http://www.w3.org/1999/xlink" x="0px" y="0px"
	 viewBox="0 0 500 500" style="enable-background:new 0 0 500 500;" xml:space="preserve">
<style type="text/css">
	.st0{fill:none;stroke:#0F0F0F;stroke-width:2;stroke-miterlimit:10;}
	.st1{fill:#0F0F0F;}
	.st2{fill-rule:evenodd;clip-rule:evenodd;fill:#FFFFFF;}
	.st3{fill:none;stroke:#FFFFFF;stroke-width:2;stroke-miterlimit:10;}
	.st4{fill:#FFFFFF;}
</style>
<circle class="st3" cx="250" cy="250" r="105.91"/>
<g>
	<path class="st4" d="M250,148.78c-55.9,0-101.22,45.32-101.22,101.22S194.1,351.22,250,351.22S351.22,305.9,351.22,250
		S305.9,148.78,250,148.78z M230.53,298.63l-21.28,21.28l-14.87-14.87c-7.95-7.95-7.94-20.92,0-28.86l22.67-22.67
		C217.04,276.18,243.13,281.38,230.53,298.63z M217.04,246.2l-22.67-22.67c-7.94-7.94-7.95-20.91,0-28.86l14.87-14.87l37.1,37.1
		C230.95,218.58,218.73,230.81,217.04,246.2z M305.62,305.03l-14.87,14.87l-21.28-21.28c-12.61-17.25,13.48-22.44,13.48-45.12
		l22.67,22.67C313.57,284.11,313.57,297.09,305.62,305.03z M305.62,223.53l-22.67,22.67c-1.69-15.39-13.91-27.61-29.3-29.3
		l37.1-37.1l14.87,14.87C313.57,202.62,313.57,215.58,305.62,223.53z"/>
</g>
</svg>
