<?xml version="1.0" encoding="utf-8"?>
<!-- Generator: Adobe Illustrator 26.0.1, SVG Export Plug-In . SVG Version: 6.00 Build 0)  -->
<svg version="1.1" id="Layer_1" xmlns="http://www.w3.org/2000/svg" xmlns:xlink="http://www.w3.org/1999/xlink" x="0px" y="0px"
	 viewBox="0 0 500 500" style="enable-background:new 0 0 500 500;" xml:space="preserve">
<style type="text/css">
	.st0{fill:none;stroke:#0F0F0F;stroke-width:2;stroke-miterlimit:10;}
	.st1{fill:#0F0F0F;}
	.st2{fill-rule:evenodd;clip-rule:evenodd;fill:#FFFFFF;}
	.st3{fill:none;stroke:#FFFFFF;stroke-width:2;stroke-miterlimit:10;}
	.st4{fill:#FFFFFF;}
</style>
<g>
	<circle class="st0" cx="250" cy="250.14" r="105.91"/>
	<circle class="st1" cx="250" cy="250.14" r="101.22"/>
</g>
<g>
	<path class="st2" d="M282.95,253.65l22.67,22.67c7.94,7.94,7.95,20.91,0,28.86l-14.87,14.87l-21.28-21.28
		C256.86,281.52,282.95,276.33,282.95,253.65"/>
	<path class="st2" d="M217.04,246.34l-22.67-22.67c-7.94-7.94-7.95-20.91,0-28.86l14.87-14.87l37.1,37.1
		C230.95,218.73,218.73,230.95,217.04,246.34"/>
	<path class="st2" d="M253.65,217.04l37.1-37.1l14.87,14.87c7.95,7.95,7.95,20.91,0,28.86l-22.67,22.67
		C281.27,230.95,269.04,218.73,253.65,217.04"/>
	<path class="st2" d="M217.04,253.65l-22.67,22.67c-7.94,7.94-7.95,20.91,0,28.86l14.87,14.87l21.28-21.28
		C243.13,281.52,217.04,276.33,217.04,253.65"/>
</g>
</svg>
