<svg version="1.1" id="Layer_1" xmlns="http://www.w3.org/2000/svg" xmlns:xlink="http://www.w3.org/1999/xlink" x="0px" y="0px"
	 width="100%" viewBox="0 0 500 500" enable-background="new 0 0 500 500" xml:space="preserve">
<path fill="#000000" opacity="1.000000" stroke="none" 
	d="
M220.000000,501.000000 
	C146.666687,501.000000 73.833366,501.000000 1.000039,501.000000 
	C1.000026,334.333405 1.000026,167.666779 1.000013,1.000129 
	C167.666565,1.000086 334.333130,1.000086 500.999756,1.000043 
	C500.999847,167.666534 500.999847,334.333069 500.999939,500.999817 
	C407.500000,501.000000 314.000000,501.000000 220.000000,501.000000 
M281.104218,302.196289 
	C278.779907,299.969757 276.455597,297.743256 273.834076,294.962616 
	C271.663330,292.906738 269.492584,290.850861 267.624573,288.279816 
	C268.433044,287.188171 269.241547,286.096558 270.474304,284.491058 
	C272.424622,282.712646 274.374939,280.934235 276.910248,278.866821 
	C279.977417,275.846252 283.044617,272.825714 286.751282,270.032684 
	C290.110901,273.161774 293.470520,276.290894 297.103973,280.003845 
	C300.590393,283.388153 304.076782,286.772430 307.891205,290.766296 
	C311.118774,293.896393 314.346313,297.026520 317.901794,300.763428 
	C320.477936,303.351471 323.003479,305.992340 325.641022,308.516235 
	C330.671082,313.329620 336.606049,313.384125 342.623322,308.487671 
	C347.096313,302.189484 346.734894,297.122528 341.312103,291.697388 
	C338.626953,289.011078 335.815948,286.450653 332.820129,283.212067 
	C329.925507,280.457550 327.030884,277.703003 323.897003,274.311493 
	C320.309753,270.852112 316.722534,267.392761 312.871246,263.310577 
	C309.655548,259.603851 306.439850,255.897125 303.855713,251.940796 
	C306.277039,249.389740 308.698334,246.838699 311.740051,244.004074 
	C314.537659,241.111954 317.335236,238.219833 320.751312,235.035019 
	C323.543213,232.129944 326.335144,229.224869 329.748169,226.034760 
	C332.202850,223.435913 334.657501,220.837067 337.735229,217.979645 
	C339.862793,215.756653 341.990326,213.533661 344.746796,211.023773 
	C350.695404,204.573975 351.069855,199.620560 345.761749,193.158890 
	C338.293152,187.981445 333.602600,188.909393 326.182678,197.158920 
	C323.422028,200.036118 320.661407,202.913315 317.283539,206.071243 
	C314.159485,209.306503 311.035400,212.541748 307.297089,216.068588 
	C304.164215,219.308228 301.031372,222.547852 297.287567,226.080978 
	C293.843842,229.545303 290.400085,233.009613 286.258759,236.285355 
	C283.523895,233.811905 280.789001,231.338440 277.800110,228.253754 
	C274.539062,225.117599 271.278046,221.981445 267.922424,218.168503 
	C268.319458,217.127609 268.716492,216.086716 269.781128,214.925201 
	C272.561493,211.964661 275.341827,209.004135 278.736908,205.783218 
	C281.136200,203.466263 283.535492,201.149292 286.525513,198.544708 
	C290.100128,194.873032 293.674774,191.201370 297.863068,187.195587 
	C302.071198,183.019257 306.409668,178.964722 310.454895,174.636093 
	C315.633667,169.094482 315.476074,163.522171 309.905029,157.370483 
	C306.031982,154.389465 301.689697,153.610779 297.527832,156.128555 
	C294.660034,157.863449 292.424805,160.643951 289.270081,163.159927 
	C286.152222,166.427795 283.034332,169.695663 279.279938,173.163162 
	C276.855774,175.788025 274.431610,178.412888 271.400970,181.310303 
	C268.233215,184.525406 265.065460,187.740494 261.263916,191.164368 
	C258.146759,194.427322 255.029617,197.690262 251.306259,200.931488 
	C250.903397,200.908554 250.500549,200.885620 249.840790,200.247833 
	C246.282608,197.137985 242.724426,194.028122 239.074051,190.216690 
	C236.157242,187.176849 233.240433,184.136993 230.099106,180.534958 
	C228.115128,178.665161 226.131149,176.795364 223.869339,174.309097 
	C221.695786,172.253845 219.522232,170.198593 217.084381,167.575333 
	C215.209579,165.786789 213.334778,163.998245 211.177368,161.642349 
	C208.798431,159.752075 206.419495,157.861816 203.461227,155.393204 
	C196.604523,154.174698 192.085999,155.945221 189.415039,160.897018 
	C186.822952,165.702606 187.766022,170.430695 192.423126,175.306442 
	C194.135864,177.099609 196.035263,178.714478 198.117706,180.989334 
	C200.363678,183.122955 202.609665,185.256592 205.147858,187.957535 
	C207.055817,189.750229 208.963760,191.542923 211.130585,193.920288 
	C212.710358,195.392014 214.290146,196.863739 216.125580,198.916260 
	C217.977020,200.661209 219.828445,202.406158 221.947998,204.775574 
	C224.577087,207.297028 227.206161,209.818466 230.130432,212.936478 
	C231.416458,214.949692 232.702499,216.962891 233.368576,219.230057 
	C227.361679,225.035141 221.354782,230.840225 214.925903,236.016098 
	C211.667465,232.860489 208.409027,229.704880 204.855545,225.986862 
	C202.389053,223.600922 199.922577,221.214981 197.135498,218.219940 
	C193.287430,214.481720 189.439377,210.743515 185.315704,206.440964 
	C181.267242,202.494278 177.218796,198.547592 172.907181,193.985764 
	C166.975739,188.840973 160.879440,188.675995 156.040222,193.529297 
	C151.467987,198.114868 151.766678,205.091309 156.941360,210.443176 
	C160.168335,213.780655 163.611084,216.909515 167.218658,220.738419 
	C171.129089,224.543640 175.039520,228.348846 179.215149,232.756927 
	C182.458954,235.892410 185.702759,239.027893 189.213104,242.762466 
	C191.758957,245.197617 194.304794,247.632767 197.102570,250.650665 
	C197.794693,251.444687 198.486816,252.238693 198.883575,253.639496 
	C196.924927,255.767853 194.966278,257.896210 192.410934,260.281708 
	C190.950134,261.856476 189.489319,263.431274 187.418182,265.283997 
	C185.715576,267.092316 184.012970,268.900635 181.746429,270.985687 
	C179.487366,273.320984 177.228302,275.656250 174.343567,278.225800 
	C171.997513,280.715271 169.651459,283.204742 166.745346,285.972382 
	C164.830978,287.986023 162.916611,289.999634 160.354797,292.241486 
	C155.597610,297.869568 155.391693,302.604156 159.966003,308.827148 
	C165.662994,313.117828 169.115021,313.329895 175.553345,309.584900 
	C178.445572,306.584869 181.337814,303.584869 184.764496,300.124786 
	C188.123550,296.738861 191.482590,293.352936 195.469269,289.704590 
	C197.966980,287.067596 200.464676,284.430634 203.551636,281.515442 
	C207.389877,277.652130 211.228134,273.788849 215.695450,269.964294 
	C216.111481,270.024200 216.527527,270.084137 217.190582,270.757629 
	C220.775116,274.222595 224.359650,277.687561 228.194702,281.758087 
	C230.403931,283.864990 232.613144,285.971863 234.772263,288.582733 
	C234.487320,288.983917 234.202377,289.385101 233.302032,290.075073 
	C230.169357,293.311798 227.036697,296.548553 223.294067,300.076813 
	C220.838120,302.648071 218.382172,305.219299 215.297073,308.053406 
	C212.356567,311.068909 209.416077,314.084442 205.841858,317.554260 
	C202.541809,320.829193 199.185867,324.050049 195.954407,327.391296 
	C190.705383,332.818695 190.644348,340.038483 195.713486,344.562897 
	C200.865768,349.161469 208.093002,348.201477 213.721786,341.930359 
	C216.517639,339.054779 219.313507,336.179199 222.731155,333.014221 
	C225.915115,329.725250 229.099075,326.436249 232.875397,322.867981 
	C235.625107,320.032227 238.374817,317.196472 241.743607,314.059082 
	C245.095184,311.064697 248.446777,308.070312 252.104980,305.695770 
	C255.687454,309.150238 259.269928,312.604706 263.110077,316.685699 
	C266.702972,320.140411 270.295868,323.595123 274.141693,327.674652 
	C277.029785,330.482452 279.917877,333.290283 283.117828,336.693909 
	C285.714081,339.146790 288.310333,341.599670 291.225983,344.675903 
	C297.249420,348.573517 301.726288,348.369415 307.423950,343.625977 
	C311.548553,337.729370 311.445374,332.948151 306.901978,328.002228 
	C305.125092,326.067932 303.080597,324.379486 300.922607,322.009308 
	C299.429077,320.613464 297.935577,319.217590 296.131958,317.209564 
	C293.132660,314.345245 290.133331,311.480896 286.917328,308.023499 
	C285.083435,306.284515 283.249542,304.545502 281.104218,302.196289 
z"/>
<path fill="#4ED0ED" opacity="1.000000" stroke="none" 
	d="
M239.166229,190.918274 
	C242.724426,194.028122 246.282608,197.137985 249.889526,200.899490 
	C249.433533,202.386475 249.038269,203.317215 248.406708,204.042038 
	C243.375488,209.816360 243.371094,210.168243 248.572845,216.107773 
	C249.111740,216.723068 249.555710,217.421463 249.874023,218.355377 
	C248.132568,220.418259 246.560822,222.207077 244.706558,224.149231 
	C242.978409,225.595749 241.532745,226.888931 240.009216,227.827881 
	C237.950409,224.641144 235.969467,221.808624 233.988525,218.976105 
	C232.702499,216.962891 231.416458,214.949692 230.154602,212.242569 
	C230.689468,207.923035 231.200165,204.297424 231.747253,200.413528 
	C233.823257,200.835266 235.315704,201.138443 237.091949,201.499283 
	C237.825958,197.755081 238.496094,194.336685 239.166229,190.918274 
z"/>
<path fill="#2DF599" opacity="1.000000" stroke="none" 
	d="
M166.956985,220.132004 
	C163.611084,216.909515 160.168335,213.780655 156.941360,210.443176 
	C151.766678,205.091309 151.467987,198.114868 156.040222,193.529297 
	C160.879440,188.675995 166.975739,188.840973 172.869080,194.694885 
	C170.872971,203.646667 168.914978,211.889343 166.956985,220.132004 
z"/>
<path fill="#2DF599" opacity="1.000000" stroke="none" 
	d="
M213.100433,342.253357 
	C208.093002,348.201477 200.865768,349.161469 195.713486,344.562897 
	C190.644348,340.038483 190.705383,332.818695 195.954407,327.391296 
	C199.185867,324.050049 202.541809,320.829193 206.246002,317.909821 
	C208.219284,325.456451 209.748215,332.656860 211.408707,339.826782 
	C211.615204,340.718445 212.519485,341.448456 213.100433,342.253357 
z"/>
<path fill="#33F1A9" opacity="1.000000" stroke="none" 
	d="
M167.087830,220.435211 
	C168.914978,211.889343 170.872971,203.646667 173.000656,195.002441 
	C177.218796,198.547592 181.267242,202.494278 185.299683,207.196259 
	C183.542358,212.269577 185.327667,217.902512 180.374527,221.065338 
	C180.008560,221.299011 180.105850,222.292862 180.028656,222.938202 
	C179.661331,226.009216 179.308167,229.081940 178.949951,232.154053 
	C175.039520,228.348846 171.129089,224.543640 167.087830,220.435211 
z"/>
<path fill="#40E1CA" opacity="1.000000" stroke="none" 
	d="
M303.224152,252.190399 
	C306.439850,255.897125 309.655548,259.603851 312.676483,263.848083 
	C311.985016,268.592407 311.488312,272.799255 310.697998,276.831116 
	C305.214844,272.139893 303.430267,272.060486 299.235748,276.307495 
	C298.321106,277.233612 297.626221,278.376770 296.830139,279.419983 
	C293.470520,276.290894 290.110901,273.161774 286.391968,269.627258 
	C286.009735,268.829437 285.986816,268.437042 286.062378,267.718140 
	C288.105591,264.596405 290.050354,261.801239 292.282806,259.174011 
	C294.410095,260.849792 296.249695,262.357666 298.089294,263.865509 
	C298.619843,263.722290 299.150421,263.579071 299.681000,263.435822 
	C299.791870,259.283234 299.902771,255.130646 300.326416,251.124832 
	C301.500854,251.577866 302.362488,251.884140 303.224152,252.190399 
z"/>
<path fill="#50CDF2" opacity="1.000000" stroke="none" 
	d="
M234.822357,288.078735 
	C232.613144,285.971863 230.403931,283.864990 228.090118,281.024048 
	C228.506744,276.730225 229.027924,273.170380 229.601379,269.253632 
	C235.600479,271.181244 236.414337,268.082336 236.090530,263.458679 
	C235.985626,261.960846 236.906250,260.391205 237.652466,259.003601 
	C242.304214,263.436676 246.661301,267.720490 250.845184,272.288208 
	C248.108414,275.368896 245.544846,278.165680 242.698181,281.136841 
	C239.884201,283.567078 237.353271,285.822906 234.822357,288.078735 
z"/>
<path fill="#46D9D9" opacity="1.000000" stroke="none" 
	d="
M216.943558,270.144043 
	C216.527527,270.084137 216.111481,270.024200 215.300110,269.615662 
	C212.277267,266.503998 209.649750,263.740906 207.012375,260.735443 
	C207.002518,260.493042 206.987366,260.008057 207.254089,259.735657 
	C208.016953,257.274414 208.358521,255.034042 209.064865,252.915329 
	C209.517868,251.556549 210.406097,249.378510 211.275986,249.289200 
	C215.150726,248.891373 214.940689,246.381805 215.053589,243.644730 
	C215.131668,241.751205 215.725021,239.878922 216.369522,238.164673 
	C219.182175,240.289368 221.713409,242.246521 224.262909,244.508636 
	C225.246201,246.176849 226.211243,247.540115 226.918625,249.219879 
	C226.444794,250.490219 226.018799,251.450562 226.048096,252.396805 
	C226.187851,256.910858 225.985031,261.026917 220.094238,259.698395 
	C218.966599,263.436920 217.955078,266.790497 216.943558,270.144043 
z"/>
<path fill="#41DFCD" opacity="1.000000" stroke="none" 
	d="
M234.797302,288.330750 
	C237.353271,285.822906 239.884201,283.567078 242.929565,281.461487 
	C243.746735,283.876740 243.825729,286.204834 244.439621,288.382111 
	C244.784698,289.606049 246.144745,291.593231 246.822464,291.505127 
	C251.532303,290.892944 250.801498,294.083038 251.033859,296.830902 
	C251.209167,298.904266 251.689804,300.951782 252.004807,303.356628 
	C251.916168,304.160309 251.857269,304.618103 251.798370,305.075928 
	C248.446777,308.070312 245.095184,311.064697 241.345093,313.784821 
	C239.187912,309.149139 241.729568,302.938721 235.366364,300.516510 
	C235.116806,300.421478 235.108429,299.604279 235.047791,299.116119 
	C234.661621,296.007355 234.292313,292.896484 233.917450,289.786285 
	C234.202377,289.385101 234.487320,288.983917 234.797302,288.330750 
z"/>
<path fill="#39EAB6" opacity="1.000000" stroke="none" 
	d="
M179.082550,232.455490 
	C179.308167,229.081940 179.661331,226.009216 180.028656,222.938202 
	C180.105850,222.292862 180.008560,221.299011 180.374527,221.065338 
	C185.327667,217.902512 183.542358,212.269577 185.437469,207.478424 
	C189.439377,210.743515 193.287430,214.481720 196.906006,218.668991 
	C196.298615,219.433884 195.636856,219.709717 195.585876,220.071609 
	C194.942795,224.636353 195.373856,229.634598 189.802216,231.902359 
	C189.198364,232.148117 189.113495,234.030014 189.050369,235.167572 
	C188.921249,237.494263 188.970673,239.830841 188.946564,242.163361 
	C185.702759,239.027893 182.458954,235.892410 179.082550,232.455490 
z"/>
<path fill="#4BD4E6" opacity="1.000000" stroke="none" 
	d="
M217.067078,270.450836 
	C217.955078,266.790497 218.966599,263.436920 220.094238,259.698395 
	C225.985031,261.026917 226.187851,256.910858 226.048096,252.396805 
	C226.018799,251.450562 226.444794,250.490219 227.185043,249.396240 
	C229.277878,250.267822 230.846649,251.279572 232.448822,252.645569 
	C234.107407,254.951324 235.732590,256.902863 237.357773,258.854401 
	C236.906250,260.391205 235.985626,261.960846 236.090530,263.458679 
	C236.414337,268.082336 235.600479,271.181244 229.601379,269.253632 
	C229.027924,273.170380 228.506744,276.730225 227.964859,280.721252 
	C224.359650,277.687561 220.775116,274.222595 217.067078,270.450836 
z"/>
<path fill="#41DFCD" opacity="1.000000" stroke="none" 
	d="
M216.088120,237.997147 
	C215.725021,239.878922 215.131668,241.751205 215.053589,243.644730 
	C214.940689,246.381805 215.150726,248.891373 211.275986,249.289200 
	C210.406097,249.378510 209.517868,251.556549 209.064865,252.915329 
	C208.358521,255.034042 208.016953,257.274414 206.973480,259.563599 
	C204.010406,257.453522 201.594681,255.243118 199.178955,253.032715 
	C198.486816,252.238693 197.794693,251.444687 197.304214,250.136734 
	C197.969666,248.777145 198.744492,247.966095 198.843140,247.079788 
	C199.256577,243.366089 197.842361,238.812653 203.818268,238.012299 
	C204.354721,237.940445 204.835831,235.735992 204.936890,234.489044 
	C205.150452,231.853989 205.095428,229.197174 205.150574,226.549286 
	C208.409027,229.704880 211.667465,232.860489 215.258728,236.468597 
	C215.757095,237.279770 215.922607,237.638458 216.088120,237.997147 
z"/>
<path fill="#3DE5C2" opacity="1.000000" stroke="none" 
	d="
M329.127045,226.319794 
	C326.335144,229.224869 323.543213,232.129944 320.361053,234.821350 
	C315.984802,227.770447 314.109558,226.983063 309.008850,229.545654 
	C308.640747,224.648972 308.276031,220.212982 307.911316,215.777008 
	C311.035400,212.541748 314.159485,209.306503 317.759521,206.317841 
	C318.498596,209.114990 318.805603,211.661957 319.012482,214.217041 
	C319.221680,216.800827 320.056274,218.357773 323.133728,217.293427 
	C325.232697,220.506699 327.179871,223.413254 329.127045,226.319794 
z"/>
<path fill="#33F1A9" opacity="1.000000" stroke="none" 
	d="
M213.411102,342.091858 
	C212.519485,341.448456 211.615204,340.718445 211.408707,339.826782 
	C209.748215,332.656860 208.219284,325.456451 206.562851,317.682678 
	C209.416077,314.084442 212.356567,311.068909 215.633636,308.356628 
	C216.494644,312.251984 215.741684,317.161896 217.807236,319.164124 
	C222.218918,323.440491 220.637375,328.664703 222.109375,333.303619 
	C219.313507,336.179199 216.517639,339.054779 213.411102,342.091858 
z"/>
<path fill="#3CE7BE" opacity="1.000000" stroke="none" 
	d="
M233.609741,289.930664 
	C234.292313,292.896484 234.661621,296.007355 235.047791,299.116119 
	C235.108429,299.604279 235.116806,300.421478 235.366364,300.516510 
	C241.729568,302.938721 239.187912,309.149139 241.035553,313.935638 
	C238.374817,317.196472 235.625107,320.032227 232.301071,322.728394 
	C231.150055,320.396027 230.687927,318.164124 229.955948,316.024506 
	C229.477158,314.624969 228.634949,313.343842 227.905899,312.037354 
	C226.964813,310.350891 225.641571,308.794342 225.088181,306.995667 
	C224.378555,304.689087 224.270981,302.197266 223.904022,299.785278 
	C227.036697,296.548553 230.169357,293.311798 233.609741,289.930664 
z"/>
<path fill="#40E1CA" opacity="1.000000" stroke="none" 
	d="
M278.122162,206.043610 
	C275.341827,209.004135 272.561493,211.964661 269.084290,214.839325 
	C267.922791,212.821213 267.694855,210.786957 266.919617,208.988647 
	C266.283142,207.512283 264.996124,206.316391 264.166321,204.710724 
	C265.203583,201.930359 270.164246,201.199081 267.722992,197.413177 
	C266.172363,195.008453 263.865448,193.091370 261.897705,190.955597 
	C265.065460,187.740494 268.233215,184.525406 271.767029,181.507523 
	C274.423370,184.139481 276.713593,186.574219 278.844482,189.335571 
	C278.114960,190.644394 277.495453,191.601624 276.983429,192.613266 
	C275.053925,196.425674 275.674347,203.542709 278.122162,206.043610 
z"/>
<path fill="#3DE5C2" opacity="1.000000" stroke="none" 
	d="
M205.003067,226.268066 
	C205.095428,229.197174 205.150452,231.853989 204.936890,234.489044 
	C204.835831,235.735992 204.354721,237.940445 203.818268,238.012299 
	C197.842361,238.812653 199.256577,243.366089 198.843140,247.079788 
	C198.744492,247.966095 197.969666,248.777145 197.178253,249.845367 
	C194.304794,247.632767 191.758957,245.197617 189.079834,242.462921 
	C188.970673,239.830841 188.921249,237.494263 189.050369,235.167572 
	C189.113495,234.030014 189.198364,232.148117 189.802216,231.902359 
	C195.373856,229.634598 194.942795,224.636353 195.585876,220.071609 
	C195.636856,219.709717 196.298615,219.433884 197.066299,218.973541 
	C199.922577,221.214981 202.389053,223.600922 205.003067,226.268066 
z"/>
<path fill="#4ECAEC" opacity="1.000000" stroke="none" 
	d="
M310.318115,158.039047 
	C315.476074,163.522171 315.633667,169.094482 310.454895,174.636093 
	C306.409668,178.964722 302.071198,183.019257 297.375488,186.947510 
	C296.597382,182.139587 296.306824,177.579742 296.172546,172.763367 
	C296.932892,171.711288 297.537018,170.915741 298.419434,169.940201 
	C302.571167,165.853149 306.444641,161.946106 310.318115,158.039047 
z"/>
<path fill="#52C8F8" opacity="1.000000" stroke="none" 
	d="
M216.369522,238.164673 
	C215.922607,237.638458 215.757095,237.279770 215.469727,236.783203 
	C221.354782,230.840225 227.361679,225.035141 233.678558,219.103088 
	C235.969467,221.808624 237.950409,224.641144 239.843155,228.092621 
	C238.531891,230.150146 237.308792,231.588730 235.793121,233.193268 
	C231.748581,236.974030 227.996613,240.588852 224.244659,244.203674 
	C221.713409,242.246521 219.182175,240.289368 216.369522,238.164673 
z"/>
<path fill="#38ECB4" opacity="1.000000" stroke="none" 
	d="
M223.599030,299.931030 
	C224.270981,302.197266 224.378555,304.689087 225.088181,306.995667 
	C225.641571,308.794342 226.964813,310.350891 227.905899,312.037354 
	C228.634949,313.343842 229.477158,314.624969 229.955948,316.024506 
	C230.687927,318.164124 231.150055,320.396027 232.004898,322.868042 
	C229.099075,326.436249 225.915115,329.725250 222.420258,333.158936 
	C220.637375,328.664703 222.218918,323.440491 217.807236,319.164124 
	C215.741684,317.161896 216.494644,312.251984 215.948212,308.225220 
	C218.382172,305.219299 220.838120,302.648071 223.599030,299.931030 
z"/>
<path fill="#43DDD2" opacity="1.000000" stroke="none" 
	d="
M287.134033,308.616577 
	C290.133331,311.480896 293.132660,314.345245 295.897034,317.665344 
	C295.108276,319.871155 294.424286,321.592743 294.033813,323.378479 
	C293.557098,325.558533 293.326813,327.792511 292.622986,330.022430 
	C289.106018,332.060516 285.955994,334.079315 282.805939,336.098114 
	C279.917877,333.290283 277.029785,330.482452 274.310120,327.192505 
	C276.659119,324.136261 278.839691,321.562225 281.317139,319.163025 
	C284.829865,321.917572 286.459961,320.502319 286.857544,317.035522 
	C287.176392,314.255219 287.058258,311.424774 287.134033,308.616577 
z"/>
<path fill="#46D9D9" opacity="1.000000" stroke="none" 
	d="
M239.120148,190.567474 
	C238.496094,194.336685 237.825958,197.755081 237.091949,201.499283 
	C235.315704,201.138443 233.823257,200.835266 231.747253,200.413528 
	C231.200165,204.297424 230.689468,207.923035 230.007019,211.944290 
	C227.206161,209.818466 224.577087,207.297028 222.095428,204.149414 
	C222.732590,199.904251 223.222336,196.285278 223.745819,192.417068 
	C225.844452,192.831635 227.339264,193.126923 229.528961,193.559479 
	C229.811523,189.128189 230.067581,185.112671 230.323624,181.097137 
	C233.240433,184.136993 236.157242,187.176849 239.120148,190.567474 
z"/>
<path fill="#50CDF2" opacity="1.000000" stroke="none" 
	d="
M285.963898,268.044678 
	C285.986816,268.437042 286.009735,268.829437 286.072235,269.513489 
	C283.044617,272.825714 279.977417,275.846252 276.333801,278.736359 
	C274.851379,275.226318 273.945435,271.846741 273.042969,268.480042 
	C267.297607,269.798584 267.357361,269.794708 266.958191,263.625885 
	C266.832184,261.678802 266.292389,259.758545 266.055725,257.534607 
	C267.389160,256.121368 268.608856,254.999481 270.166443,253.956100 
	C272.327789,255.364014 274.151215,256.693420 276.146118,258.307404 
	C279.533020,261.742889 282.748474,264.893768 285.963898,268.044678 
z"/>
<path fill="#4AD6E3" opacity="1.000000" stroke="none" 
	d="
M270.050018,285.004913 
	C269.241547,286.096558 268.433044,287.188171 267.172852,288.717957 
	C264.820801,290.804871 262.920441,292.453613 260.942505,293.691010 
	C260.560486,290.670563 260.554047,287.972290 259.812408,285.494080 
	C259.493256,284.427582 257.382446,282.912292 256.546509,283.159485 
	C253.284897,284.123962 253.287506,282.090424 253.018677,280.047577 
	C252.656586,277.296112 252.282486,274.546173 252.054657,271.499451 
	C254.778442,268.747406 257.361084,266.291534 259.962830,264.267151 
	C260.504181,268.251343 261.026489,271.803986 261.628113,275.896149 
	C267.569366,273.727203 267.892273,277.363861 268.106140,281.485779 
	C268.168579,282.689209 269.370422,283.833496 270.050018,285.004913 
z"/>
<path fill="#33F1A9" opacity="1.000000" stroke="none" 
	d="
M204.855637,187.390213 
	C202.609665,185.256592 200.363678,183.122955 198.016159,180.214722 
	C195.777649,171.274429 202.702789,165.044891 202.690506,157.313828 
	C202.689804,156.867111 203.570221,156.419006 204.040558,155.971558 
	C206.419495,157.861816 208.798431,159.752075 211.103851,162.348755 
	C208.793289,167.587936 212.072830,174.331085 205.366577,177.165436 
	C204.925919,177.351685 205.048050,179.012054 205.014252,179.990387 
	C204.929123,182.455887 204.904495,184.923462 204.855637,187.390213 
z"/>
<path fill="#2DF599" opacity="1.000000" stroke="none" 
	d="
M203.750900,155.682373 
	C203.570221,156.419006 202.689804,156.867111 202.690506,157.313828 
	C202.702789,165.044891 195.777649,171.274429 197.882080,179.925385 
	C196.035263,178.714478 194.135864,177.099609 192.423126,175.306442 
	C187.766022,170.430695 186.822952,165.702606 189.415039,160.897018 
	C192.085999,155.945221 196.604523,154.174698 203.750900,155.682373 
z"/>
<path fill="#4ECAEC" opacity="1.000000" stroke="none" 
	d="
M207.022232,260.977844 
	C209.649750,263.740906 212.277267,266.503998 214.985565,269.596313 
	C211.228134,273.788849 207.389877,277.652130 203.182297,281.263947 
	C202.248688,277.137756 201.684418,273.263092 201.007812,268.617035 
	C198.663986,270.207550 197.336105,271.108673 195.723236,271.839294 
	C192.968338,269.447906 190.498428,267.226959 188.028503,265.006042 
	C189.489319,263.431274 190.950134,261.856476 192.778931,260.493713 
	C197.838150,269.268982 199.559402,269.528168 205.857620,262.593994 
	C206.301224,262.105591 206.636566,261.518860 207.022232,260.977844 
z"/>
<path fill="#33F1A9" opacity="1.000000" stroke="none" 
	d="
M342.013977,308.755524 
	C336.606049,313.384125 330.671082,313.329620 325.641022,308.516235 
	C323.003479,305.992340 320.477936,303.351471 318.143982,300.424866 
	C321.588837,298.391632 324.791534,296.696960 328.261475,295.131714 
	C329.237122,295.591431 329.945496,295.921783 330.779419,296.568481 
	C334.607971,300.841736 338.310974,304.798615 342.013977,308.755524 
z"/>
<path fill="#2DF599" opacity="1.000000" stroke="none" 
	d="
M268.016998,218.845276 
	C271.278046,221.981445 274.539062,225.117599 277.761993,228.945618 
	C277.480804,231.758118 277.420654,233.921463 276.938507,235.986282 
	C276.531647,237.728485 275.635040,239.356308 274.687317,240.873672 
	C273.286896,239.792618 272.154358,238.872665 270.848572,237.671967 
	C267.144867,233.854340 263.614349,230.317444 260.069946,226.434692 
	C260.041077,225.397308 260.026154,224.705780 260.297363,223.839264 
	C263.061340,222.057938 265.539154,220.451599 268.016998,218.845276 
z"/>
<path fill="#4ECAEC" opacity="1.000000" stroke="none" 
	d="
M342.318665,308.621582 
	C338.310974,304.798615 334.607971,300.841736 331.072083,296.234039 
	C331.846741,291.666595 332.454315,287.749908 333.061890,283.833252 
	C335.815948,286.450653 338.626953,289.011078 341.312103,291.697388 
	C346.734894,297.122528 347.096313,302.189484 342.318665,308.621582 
z"/>
<path fill="#41DFCD" opacity="1.000000" stroke="none" 
	d="
M230.211365,180.816040 
	C230.067581,185.112671 229.811523,189.128189 229.528961,193.559479 
	C227.339264,193.126923 225.844452,192.831635 223.745819,192.417068 
	C223.222336,196.285278 222.732590,199.904251 221.961365,203.837173 
	C219.828445,202.406158 217.977020,200.661209 216.088867,198.204117 
	C216.372513,195.048401 216.542221,192.571426 217.073837,190.174713 
	C217.359375,188.887497 218.318771,186.666641 218.884979,186.694275 
	C223.897263,186.938736 222.725922,183.386246 223.030411,180.597061 
	C223.238770,178.688660 223.763748,176.814850 224.147171,174.925568 
	C226.131149,176.795364 228.115128,178.665161 230.211365,180.816040 
z"/>
<path fill="#4ED0ED" opacity="1.000000" stroke="none" 
	d="
M270.262146,284.747986 
	C269.370422,283.833496 268.168579,282.689209 268.106140,281.485779 
	C267.892273,277.363861 267.569366,273.727203 261.628113,275.896149 
	C261.026489,271.803986 260.504181,268.251343 260.083588,263.964203 
	C262.104187,261.428497 264.023071,259.627258 265.941956,257.825989 
	C266.292389,259.758545 266.832184,261.678802 266.958191,263.625885 
	C267.357361,269.794708 267.297607,269.798584 273.042969,268.480042 
	C273.945435,271.846741 274.851379,275.226318 276.041290,278.880859 
	C274.374939,280.934235 272.424622,282.712646 270.262146,284.747986 
z"/>
<path fill="#39EAB6" opacity="1.000000" stroke="none" 
	d="
M205.001740,187.673874 
	C204.904495,184.923462 204.929123,182.455887 205.014252,179.990387 
	C205.048050,179.012054 204.925919,177.351685 205.366577,177.165436 
	C212.072830,174.331085 208.793289,167.587936 211.245148,162.632446 
	C213.334778,163.998245 215.209579,165.786789 217.139648,168.367950 
	C217.132843,170.157516 217.041962,171.153671 217.013824,172.151581 
	C216.903458,176.066025 217.836609,180.387833 212.334290,181.859955 
	C211.634216,182.047241 211.176376,184.112564 211.070511,185.347610 
	C210.843445,187.996490 210.919662,190.671387 210.871704,193.335632 
	C208.963760,191.542923 207.055817,189.750229 205.001740,187.673874 
z"/>
<path fill="#50CDF2" opacity="1.000000" stroke="none" 
	d="
M251.951675,305.385864 
	C251.857269,304.618103 251.916168,304.160309 252.287552,303.187225 
	C255.035645,300.798035 257.471252,298.924133 260.105774,297.317566 
	C263.568848,301.002869 266.832977,304.420776 270.016907,308.190186 
	C267.575226,311.047516 265.213806,313.553345 262.852386,316.059174 
	C259.269928,312.604706 255.687454,309.150238 251.951675,305.385864 
z"/>
<path fill="#3CE7BE" opacity="1.000000" stroke="none" 
	d="
M296.967041,279.711914 
	C297.626221,278.376770 298.321106,277.233612 299.235748,276.307495 
	C303.430267,272.060486 305.214844,272.139893 310.870483,277.113312 
	C313.541382,280.053772 315.746185,282.537048 317.590393,285.033691 
	C314.007629,286.750305 310.785400,288.453522 307.563202,290.156738 
	C304.076782,286.772430 300.590393,283.388153 296.967041,279.711914 
z"/>
<path fill="#35EEAE" opacity="1.000000" stroke="none" 
	d="
M274.955200,241.034760 
	C275.635040,239.356308 276.531647,237.728485 276.938507,235.986282 
	C277.420654,233.921463 277.480804,231.758118 277.889008,229.251221 
	C280.789001,231.338440 283.523895,233.811905 286.696350,236.667114 
	C288.089996,238.360107 289.046082,239.671310 289.926697,241.384094 
	C288.893555,245.533676 287.935852,249.281677 286.708374,252.866821 
	C285.346741,252.107773 284.254913,251.511566 283.055450,250.592911 
	C280.283600,247.191879 277.619415,244.113327 274.955200,241.034760 
z"/>
<path fill="#46D9D9" opacity="1.000000" stroke="none" 
	d="
M296.016235,173.019867 
	C296.306824,177.579742 296.597382,182.139587 297.068665,187.114578 
	C293.674774,191.201370 290.100128,194.873032 286.070526,198.322372 
	C285.077026,193.733353 284.538513,189.366684 284.167877,184.720642 
	C285.900452,182.638947 287.465179,180.836609 289.310425,178.861816 
	C291.732697,176.799530 293.874451,174.909698 296.016235,173.019867 
z"/>
<path fill="#3DE5C2" opacity="1.000000" stroke="none" 
	d="
M211.001144,193.627960 
	C210.919662,190.671387 210.843445,187.996490 211.070511,185.347610 
	C211.176376,184.112564 211.634216,182.047241 212.334290,181.859955 
	C217.836609,180.387833 216.903458,176.066025 217.013824,172.151581 
	C217.041962,171.153671 217.132843,170.157516 217.271790,168.651947 
	C219.522232,170.198593 221.695786,172.253845 224.008255,174.617340 
	C223.763748,176.814850 223.238770,178.688660 223.030411,180.597061 
	C222.725922,183.386246 223.897263,186.938736 218.884979,186.694275 
	C218.318771,186.666641 217.359375,188.887497 217.073837,190.174713 
	C216.542221,192.571426 216.372513,195.048401 215.961060,197.913727 
	C214.290146,196.863739 212.710358,195.392014 211.001144,193.627960 
z"/>
<path fill="#4BD4E6" opacity="1.000000" stroke="none" 
	d="
M326.793091,196.911560 
	C333.602600,188.909393 338.293152,187.981445 345.627747,193.675095 
	C342.990997,196.786240 340.488251,199.381165 337.696228,202.137543 
	C335.253418,204.189194 333.099854,206.079376 330.595947,207.825104 
	C329.827759,205.899567 329.521698,204.082413 328.961639,202.347244 
	C328.363770,200.495010 327.526062,198.720184 326.793091,196.911560 
z"/>
<path fill="#31F0A2" opacity="1.000000" stroke="none" 
	d="
M310.111572,157.704773 
	C306.444641,161.946106 302.571167,165.853149 298.122925,169.754868 
	C295.001068,167.485397 292.453949,165.221268 289.906830,162.957153 
	C292.424805,160.643951 294.660034,157.863449 297.527832,156.128555 
	C301.689697,153.610779 306.031982,154.389465 310.111572,157.704773 
z"/>
<path fill="#46D9D9" opacity="1.000000" stroke="none" 
	d="
M317.950958,285.020294 
	C315.746185,282.537048 313.541382,280.053772 311.164124,277.288330 
	C311.488312,272.799255 311.985016,268.592407 312.808502,264.159485 
	C316.722534,267.392761 320.309753,270.852112 323.649323,274.778198 
	C322.934570,276.911621 322.362793,278.557526 322.026306,280.250244 
	C321.582245,282.484039 321.322754,284.754517 320.671539,286.958801 
	C319.556458,286.278961 318.753723,285.649628 317.950958,285.020294 
z"/>
<path fill="#4AD6E3" opacity="1.000000" stroke="none" 
	d="
M262.981232,316.372437 
	C265.213806,313.553345 267.575226,311.047516 270.296326,308.341095 
	C271.419250,308.498901 272.182526,308.857300 273.024048,309.522583 
	C274.727203,311.558685 276.352142,313.287933 278.136658,315.287170 
	C279.204285,316.700836 280.112274,317.844513 281.020294,318.988159 
	C278.839691,321.562225 276.659119,324.136261 274.183655,326.880066 
	C270.295868,323.595123 266.702972,320.140411 262.981232,316.372437 
z"/>
<path fill="#31F0A2" opacity="1.000000" stroke="none" 
	d="
M272.945770,309.215698 
	C272.182526,308.857300 271.419250,308.498901 270.376587,307.989624 
	C266.832977,304.420776 263.568848,301.002869 260.164917,297.003845 
	C260.356781,295.649323 260.688416,294.875854 261.020081,294.102386 
	C262.920441,292.453613 264.820801,290.804871 267.021515,288.975525 
	C269.492584,290.850861 271.663330,292.906738 273.954773,295.727966 
	C273.698914,300.734100 273.322357,304.974915 272.945770,309.215698 
z"/>
<path fill="#38ECB4" opacity="1.000000" stroke="none" 
	d="
M317.590393,285.033691 
	C318.753723,285.649628 319.556458,286.278961 320.844086,287.241180 
	C323.550720,290.050140 325.772461,292.526215 327.994202,295.002319 
	C324.791534,296.696960 321.588837,298.391632 317.980042,300.121460 
	C314.346313,297.026520 311.118774,293.896393 307.727203,290.461487 
	C310.785400,288.453522 314.007629,286.750305 317.590393,285.033691 
z"/>
<path fill="#3DE5C2" opacity="1.000000" stroke="none" 
	d="
M194.841629,289.967010 
	C191.482590,293.352936 188.123550,296.738861 184.394669,299.913940 
	C183.681580,297.295868 183.496567,294.851166 182.939255,292.494507 
	C182.569931,290.932800 181.667252,289.497223 181.121948,287.753174 
	C181.493896,287.005829 181.747269,286.510498 182.284851,285.844238 
	C185.056305,283.144226 187.543533,280.615173 190.272400,278.060089 
	C190.514053,278.034058 190.998276,277.991913 191.306885,278.219452 
	C192.074249,280.405121 192.468658,282.381287 193.010010,284.316315 
	C193.543030,286.221558 194.225006,288.085144 194.841629,289.967010 
z"/>
<path fill="#43DDD2" opacity="1.000000" stroke="none" 
	d="
M326.487885,197.035248 
	C327.526062,198.720184 328.363770,200.495010 328.961639,202.347244 
	C329.521698,204.082413 329.827759,205.899567 330.491699,208.125183 
	C330.446411,209.361191 330.154999,210.152679 329.544067,211.023285 
	C327.143707,213.063843 325.062836,215.025269 322.981934,216.986694 
	C320.056274,218.357773 319.221680,216.800827 319.012482,214.217041 
	C318.805603,211.661957 318.498596,209.114990 318.068146,206.177490 
	C320.661407,202.913315 323.422028,200.036118 326.487885,197.035248 
z"/>
<path fill="#35EEAE" opacity="1.000000" stroke="none" 
	d="
M307.604187,215.922791 
	C308.276031,220.212982 308.640747,224.648972 308.835327,229.825348 
	C306.759369,232.694626 304.853516,234.823547 302.687866,237.102814 
	C301.618286,237.835052 300.808533,238.416916 299.917969,238.595490 
	C299.190918,234.057312 298.544678,229.922394 297.898499,225.787476 
	C301.031372,222.547852 304.164215,219.308228 307.604187,215.922791 
z"/>
<path fill="#38ECB4" opacity="1.000000" stroke="none" 
	d="
M181.003342,288.005157 
	C181.667252,289.497223 182.569931,290.932800 182.939255,292.494507 
	C183.496567,294.851166 183.681580,297.295868 184.127441,300.143982 
	C181.337814,303.584869 178.445572,306.584869 175.075851,309.303772 
	C174.399124,306.636719 174.395447,304.212280 173.935181,301.877808 
	C173.601807,300.186920 172.662964,298.615417 172.151886,296.721130 
	C173.208191,295.307739 174.106735,294.163910 175.284683,292.850342 
	C177.377167,291.122162 179.190247,289.563660 181.003342,288.005157 
z"/>
<path fill="#4BD4E6" opacity="1.000000" stroke="none" 
	d="
M328.261475,295.131714 
	C325.772461,292.526215 323.550720,290.050140 321.156433,287.291626 
	C321.322754,284.754517 321.582245,282.484039 322.026306,280.250244 
	C322.362793,278.557526 322.934570,276.911621 323.768951,275.096680 
	C327.030884,277.703003 329.925507,280.457550 332.940979,283.522644 
	C332.454315,287.749908 331.846741,291.666595 330.946533,295.917725 
	C329.945496,295.921783 329.237122,295.591431 328.261475,295.131714 
z"/>
<path fill="#35EEAE" opacity="1.000000" stroke="none" 
	d="
M289.588440,163.058533 
	C292.453949,165.221268 295.001068,167.485397 297.844666,169.934860 
	C297.537018,170.915741 296.932892,171.711288 296.172516,172.763351 
	C293.874451,174.909698 291.732697,176.799530 288.970673,178.787033 
	C285.539093,176.910980 282.727753,174.937241 279.916443,172.963531 
	C283.034332,169.695663 286.152222,166.427795 289.588440,163.058533 
z"/>
<path fill="#43DDD2" opacity="1.000000" stroke="none" 
	d="
M261.580811,191.059982 
	C263.865448,193.091370 266.172363,195.008453 267.722992,197.413177 
	C270.164246,201.199081 265.203583,201.930359 263.897522,204.868958 
	C262.324890,206.206131 261.189911,207.099609 259.767334,207.819092 
	C256.957336,205.414474 254.434906,203.183853 251.912476,200.953217 
	C255.029617,197.690262 258.146759,194.427322 261.580811,191.059982 
z"/>
<path fill="#4AD6E3" opacity="1.000000" stroke="none" 
	d="
M251.609375,200.942352 
	C254.434906,203.183853 256.957336,205.414474 259.594788,208.095245 
	C258.477631,210.032730 257.245514,211.520065 255.732391,213.173767 
	C253.648865,214.920547 251.846298,216.500931 250.043716,218.081314 
	C249.555710,217.421463 249.111740,216.723068 248.572845,216.107773 
	C243.371094,210.168243 243.375488,209.816360 248.406708,204.042038 
	C249.038269,203.317215 249.433533,202.386475 250.017975,201.206909 
	C250.500549,200.885620 250.903397,200.908554 251.609375,200.942352 
z"/>
<path fill="#46D9D9" opacity="1.000000" stroke="none" 
	d="
M195.155457,289.835815 
	C194.225006,288.085144 193.543030,286.221558 193.010010,284.316315 
	C192.468658,282.381287 192.074249,280.405121 191.470459,277.937866 
	C192.886353,275.622437 194.447296,273.816101 196.008209,272.009766 
	C197.336105,271.108673 198.663986,270.207550 201.007812,268.617035 
	C201.684418,273.263092 202.248688,277.137756 202.887665,281.403046 
	C200.464676,284.430634 197.966980,287.067596 195.155457,289.835815 
z"/>
<path fill="#3CE7BE" opacity="1.000000" stroke="none" 
	d="
M279.598206,173.063339 
	C282.727753,174.937241 285.539093,176.910980 288.690155,178.959503 
	C287.465179,180.836609 285.900452,182.638947 283.890076,184.882050 
	C281.964203,186.551514 280.484009,187.780243 279.003815,189.008972 
	C276.713593,186.574219 274.423370,184.139481 272.070251,181.371246 
	C274.431610,178.412888 276.855774,175.788025 279.598206,173.063339 
z"/>
<path fill="#4ECAEC" opacity="1.000000" stroke="none" 
	d="
M301.158020,322.579041 
	C303.080597,324.379486 305.125092,326.067932 306.901978,328.002228 
	C311.445374,332.948151 311.548553,337.729370 306.859253,343.605164 
	C304.199005,341.385223 302.103424,339.186035 300.034851,336.568024 
	C300.427216,331.625793 300.792603,327.102417 301.158020,322.579041 
z"/>
<path fill="#4AD6E3" opacity="1.000000" stroke="none" 
	d="
M299.998779,238.998764 
	C300.808533,238.416916 301.618286,237.835052 303.055664,237.133865 
	C306.162079,239.438919 308.640869,241.863281 311.119659,244.287643 
	C308.698334,246.838699 306.277039,249.389740 303.539917,252.065613 
	C302.362488,251.884140 301.500854,251.577866 300.153168,250.844238 
	C298.134338,248.302765 296.601501,246.188644 295.329651,243.884018 
	C297.059967,242.128586 298.529388,240.563675 299.998779,238.998764 
z"/>
<path fill="#43DDD2" opacity="1.000000" stroke="none" 
	d="
M311.429871,244.145859 
	C308.640869,241.863281 306.162079,239.438919 303.315491,236.983490 
	C304.853516,234.823547 306.759369,232.694626 308.838715,230.286041 
	C314.109558,226.983063 315.984802,227.770447 320.051819,234.967682 
	C317.335236,238.219833 314.537659,241.111954 311.429871,244.145859 
z"/>
<path fill="#43DDD2" opacity="1.000000" stroke="none" 
	d="
M278.844482,189.335571 
	C280.484009,187.780243 281.964203,186.551514 283.722198,185.161407 
	C284.538513,189.366684 285.077026,193.733353 285.775146,198.466187 
	C283.535492,201.149292 281.136200,203.466263 278.429535,205.913406 
	C275.674347,203.542709 275.053925,196.425674 276.983429,192.613266 
	C277.495453,191.601624 278.114960,190.644394 278.844482,189.335571 
z"/>
<path fill="#31F0A2" opacity="1.000000" stroke="none" 
	d="
M171.994125,296.990662 
	C172.662964,298.615417 173.601807,300.186920 173.935181,301.877808 
	C174.395447,304.212280 174.399124,306.636719 174.757416,309.384094 
	C169.115021,313.329895 165.662994,313.117828 160.123779,308.325439 
	C162.857239,305.228088 165.432907,302.632446 168.278809,299.875427 
	C169.697403,298.806274 170.845764,297.898468 171.994125,296.990662 
z"/>
<path fill="#3CE7BE" opacity="1.000000" stroke="none" 
	d="
M256.013367,213.007401 
	C257.245514,211.520065 258.477631,210.032730 259.882355,208.269241 
	C261.189911,207.099609 262.324890,206.206131 263.728638,205.154419 
	C264.996124,206.316391 266.283142,207.512283 266.919617,208.988647 
	C267.694855,210.786957 267.922791,212.821213 268.750458,214.899628 
	C268.716492,216.086716 268.319458,217.127609 267.969727,218.506897 
	C265.539154,220.451599 263.061340,222.057938 260.066406,223.519119 
	C258.370636,219.918457 257.192017,216.462921 256.013367,213.007401 
z"/>
<path fill="#2DF599" opacity="1.000000" stroke="none" 
	d="
M299.917969,238.595490 
	C298.529388,240.563675 297.059967,242.128586 294.997711,243.813202 
	C292.937286,242.949448 291.469727,241.965988 290.002167,240.982529 
	C289.046082,239.671310 288.089996,238.360107 287.045105,236.761414 
	C290.400085,233.009613 293.843842,229.545303 297.593018,225.934235 
	C298.544678,229.922394 299.190918,234.057312 299.917969,238.595490 
z"/>
<path fill="#2DF599" opacity="1.000000" stroke="none" 
	d="
M337.985474,201.976089 
	C340.488251,199.381165 342.990997,196.786240 345.771484,193.992630 
	C351.069855,199.620560 350.695404,204.573975 344.354187,210.810120 
	C341.969574,207.723007 339.977509,204.849548 337.985474,201.976089 
z"/>
<path fill="#46D9D9" opacity="1.000000" stroke="none" 
	d="
M190.030762,278.086121 
	C187.543533,280.615173 185.056305,283.144226 182.117020,285.556641 
	C179.433060,282.957184 177.201141,280.474335 174.969238,277.991516 
	C177.228302,275.656250 179.487366,273.320984 182.369690,271.013489 
	C185.338898,273.389587 187.684830,275.737854 190.030762,278.086121 
z"/>
<path fill="#33F1A9" opacity="1.000000" stroke="none" 
	d="
M337.696228,202.137543 
	C339.977509,204.849548 341.969574,207.723007 344.039734,210.953583 
	C341.990326,213.533661 339.862793,215.756653 337.254944,217.805496 
	C334.470947,215.402283 332.167267,213.173218 329.863556,210.944153 
	C330.154999,210.152679 330.446411,209.361191 330.842072,208.269638 
	C333.099854,206.079376 335.253418,204.189194 337.696228,202.137543 
z"/>
<path fill="#50CDF2" opacity="1.000000" stroke="none" 
	d="
M207.012375,260.735443 
	C206.636566,261.518860 206.301224,262.105591 205.857620,262.593994 
	C199.559402,269.528168 197.838150,269.268982 193.077271,260.365143 
	C194.966278,257.896210 196.924927,255.767853 199.031265,253.336090 
	C201.594681,255.243118 204.010406,257.453522 206.706757,259.835999 
	C206.987366,260.008057 207.002518,260.493042 207.012375,260.735443 
z"/>
<path fill="#3DE5C2" opacity="1.000000" stroke="none" 
	d="
M282.961884,336.395996 
	C285.955994,334.079315 289.106018,332.060516 292.795349,330.302917 
	C295.232269,332.700989 297.129883,334.837830 298.721863,337.127869 
	C295.912994,339.538208 293.409790,341.795380 290.906586,344.052551 
	C288.310333,341.599670 285.714081,339.146790 282.961884,336.395996 
z"/>
<path fill="#38ECB4" opacity="1.000000" stroke="none" 
	d="
M329.544067,211.023285 
	C332.167267,213.173218 334.470947,215.402283 336.943420,217.934784 
	C334.657501,220.837067 332.202850,223.435913 329.437622,226.177277 
	C327.179871,223.413254 325.232697,220.506699 323.133728,217.293427 
	C325.062836,215.025269 327.143707,213.063843 329.544067,211.023285 
z"/>
<path fill="#3DE5C2" opacity="1.000000" stroke="none" 
	d="
M172.151886,296.721130 
	C170.845764,297.898468 169.697403,298.806274 168.055847,299.627441 
	C165.375839,297.031616 163.189041,294.522461 161.002228,292.013275 
	C162.916611,289.999634 164.830978,287.986023 167.366287,286.002655 
	C170.326569,288.361969 172.665924,290.691010 175.005280,293.020050 
	C174.106735,294.163910 173.208191,295.307739 172.151886,296.721130 
z"/>
<path fill="#41DFCD" opacity="1.000000" stroke="none" 
	d="
M175.284668,292.850342 
	C172.665924,290.691010 170.326569,288.361969 167.646332,285.863556 
	C169.651459,283.204742 171.997513,280.715271 174.656403,278.108643 
	C177.201141,280.474335 179.433060,282.957184 181.832794,285.727600 
	C181.747269,286.510498 181.493896,287.005829 181.121948,287.753174 
	C179.190247,289.563660 177.377167,291.122162 175.284668,292.850342 
z"/>
<path fill="#39EAB6" opacity="1.000000" stroke="none" 
	d="
M160.678513,292.127380 
	C163.189041,294.522461 165.375839,297.031616 167.785614,299.788818 
	C165.432907,302.632446 162.857239,305.228088 159.971725,307.998932 
	C155.391693,302.604156 155.597610,297.869568 160.678513,292.127380 
z"/>
<path fill="#4AD6E3" opacity="1.000000" stroke="none" 
	d="
M299.027527,336.974701 
	C297.129883,334.837830 295.232269,332.700989 293.162292,330.283630 
	C293.326813,327.792511 293.557098,325.558533 294.033813,323.378479 
	C294.424286,321.592743 295.108276,319.871155 296.052094,317.971436 
	C297.935577,319.217590 299.429077,320.613464 301.040314,322.294189 
	C300.792603,327.102417 300.427216,331.625793 299.789673,336.567688 
	C299.517578,336.986206 299.027527,336.974701 299.027527,336.974701 
z"/>
<path fill="#3DE5C2" opacity="1.000000" stroke="none" 
	d="
M281.317139,319.163025 
	C280.112274,317.844513 279.204285,316.700836 278.496582,315.133240 
	C279.130493,312.896057 279.579559,311.086334 279.993591,309.268616 
	C280.483398,307.118195 280.942963,304.960846 281.415649,302.806519 
	C283.249542,304.545502 285.083435,306.284515 287.025696,308.320038 
	C287.058258,311.424774 287.176392,314.255219 286.857544,317.035522 
	C286.459961,320.502319 284.829865,321.917572 281.317139,319.163025 
z"/>
<path fill="#39EAB6" opacity="1.000000" stroke="none" 
	d="
M298.721863,337.127869 
	C299.027527,336.974701 299.517578,336.986206 299.762726,336.986542 
	C302.103424,339.186035 304.199005,341.385223 306.549011,343.775055 
	C301.726288,348.369415 297.249420,348.573517 291.066284,344.364227 
	C293.409790,341.795380 295.912994,339.538208 298.721863,337.127869 
z"/>
<path fill="#38ECB4" opacity="1.000000" stroke="none" 
	d="
M281.259949,302.501404 
	C280.942963,304.960846 280.483398,307.118195 279.993591,309.268616 
	C279.579559,311.086334 279.130493,312.896057 278.336975,314.863251 
	C276.352142,313.287933 274.727203,311.558685 273.024048,309.522583 
	C273.322357,304.974915 273.698914,300.734100 274.103394,296.005035 
	C276.455597,297.743256 278.779907,299.969757 281.259949,302.501404 
z"/>
<path fill="#4BD4E6" opacity="1.000000" stroke="none" 
	d="
M190.272400,278.060089 
	C187.684830,275.737854 185.338898,273.389587 182.651657,270.875153 
	C184.012970,268.900635 185.715576,267.092316 187.723343,265.145020 
	C190.498428,267.226959 192.968338,269.447906 195.723236,271.839294 
	C194.447296,273.816101 192.886353,275.622437 191.161850,277.710327 
	C190.998276,277.991913 190.514053,278.034058 190.272400,278.060089 
z"/>
<path fill="#38ECB4" opacity="1.000000" stroke="none" 
	d="
M255.732391,213.173767 
	C257.192017,216.462921 258.370636,219.918457 259.780212,223.694122 
	C260.026154,224.705780 260.041077,225.397308 259.719574,226.523285 
	C256.802795,229.373398 254.222458,231.789032 251.417419,234.353790 
	C250.498474,234.681366 249.804230,234.859848 248.859863,234.718933 
	C248.400589,232.341431 248.508347,230.180237 247.883102,228.257431 
	C247.373108,226.689072 245.986801,225.405655 244.989059,223.995895 
	C246.560822,222.207077 248.132568,220.418259 249.874023,218.355377 
	C251.846298,216.500931 253.648865,214.920547 255.732391,213.173767 
z"/>
<path fill="#31F0A2" opacity="1.000000" stroke="none" 
	d="
M244.706558,224.149231 
	C245.986801,225.405655 247.373108,226.689072 247.883102,228.257431 
	C248.508347,230.180237 248.400589,232.341431 248.772308,235.050217 
	C246.167557,238.570816 243.400223,241.440735 240.311691,244.010300 
	C239.656082,241.634705 239.586578,239.467148 238.905243,237.512863 
	C238.338593,235.887573 237.052902,234.512955 236.085709,233.027313 
	C237.308792,231.588730 238.531891,230.150146 239.921021,228.446838 
	C241.532745,226.888931 242.978409,225.595749 244.706558,224.149231 
z"/>
<path fill="#3CE7BE" opacity="1.000000" stroke="none" 
	d="
M289.926697,241.384094 
	C291.469727,241.965988 292.937286,242.949448 294.736755,244.003723 
	C296.601501,246.188644 298.134338,248.302765 299.840393,250.697464 
	C299.902771,255.130646 299.791870,259.283234 299.681000,263.435822 
	C299.150421,263.579071 298.619843,263.722290 298.089294,263.865509 
	C296.249695,262.357666 294.410095,260.849792 292.116577,258.893341 
	C290.101196,256.639709 288.539673,254.834702 286.978180,253.029678 
	C287.935852,249.281677 288.893555,245.533676 289.926697,241.384094 
z"/>
<path fill="#43DDD2" opacity="1.000000" stroke="none" 
	d="
M286.708374,252.866821 
	C288.539673,254.834702 290.101196,256.639709 291.828918,258.725403 
	C290.050354,261.801239 288.105591,264.596405 286.062378,267.718140 
	C282.748474,264.893768 279.533020,261.742889 276.318878,258.021454 
	C278.601135,255.272400 280.882111,253.093887 283.163086,250.915375 
	C284.254913,251.511566 285.346741,252.107773 286.708374,252.866821 
z"/>
<path fill="#020607" opacity="1.000000" stroke="none" 
	d="
M240.632889,244.310669 
	C243.400223,241.440735 246.167557,238.570816 249.022430,235.369598 
	C249.804230,234.859848 250.498474,234.681366 251.574142,234.667816 
	C255.483459,238.278732 259.011353,241.724731 262.703369,245.474930 
	C265.187866,248.478622 267.508179,251.178101 269.828522,253.877594 
	C268.608856,254.999481 267.389160,256.121368 266.055725,257.534607 
	C264.023071,259.627258 262.104187,261.428497 260.064514,263.532684 
	C257.361084,266.291534 254.778442,268.747406 251.821991,271.513672 
	C251.448227,271.824005 251.018372,272.004333 251.018372,272.004333 
	C246.661301,267.720490 242.304214,263.436676 237.652466,259.003601 
	C235.732590,256.902863 234.107407,254.951324 232.790955,252.457275 
	C235.610779,249.380051 238.121826,246.845367 240.632889,244.310669 
z"/>
<path fill="#46D9D9" opacity="1.000000" stroke="none" 
	d="
M250.845184,272.288208 
	C251.018372,272.004333 251.448227,271.824005 251.680878,271.809814 
	C252.282486,274.546173 252.656586,277.296112 253.018677,280.047577 
	C253.287506,282.090424 253.284897,284.123962 256.546509,283.159485 
	C257.382446,282.912292 259.493256,284.427582 259.812408,285.494080 
	C260.554047,287.972290 260.560486,290.670563 260.942505,293.691010 
	C260.688416,294.875854 260.356781,295.649323 259.966003,296.736511 
	C257.471252,298.924133 255.035645,300.798035 252.317291,302.841370 
	C251.689804,300.951782 251.209167,298.904266 251.033859,296.830902 
	C250.801498,294.083038 251.532303,290.892944 246.822464,291.505127 
	C246.144745,291.593231 244.784698,289.606049 244.439621,288.382111 
	C243.825729,286.204834 243.746735,283.876740 243.212646,281.287109 
	C245.544846,278.165680 248.108414,275.368896 250.845184,272.288208 
z"/>
<path fill="#2DF599" opacity="1.000000" stroke="none" 
	d="
M240.311691,244.010300 
	C238.121826,246.845367 235.610779,249.380051 232.757568,252.103027 
	C230.846649,251.279572 229.277878,250.267822 227.442688,249.079742 
	C226.211243,247.540115 225.246201,246.176849 224.262909,244.508621 
	C227.996613,240.588852 231.748581,236.974030 235.793121,233.193268 
	C237.052902,234.512955 238.338593,235.887573 238.905243,237.512863 
	C239.586578,239.467148 239.656082,241.634705 240.311691,244.010300 
z"/>
<path fill="#46D9D9" opacity="1.000000" stroke="none" 
	d="
M270.166443,253.956085 
	C267.508179,251.178101 265.187866,248.478622 263.094177,245.427368 
	C265.887848,242.701309 268.454803,240.327011 271.021790,237.952713 
	C272.154358,238.872665 273.286896,239.792618 274.687317,240.873672 
	C277.619415,244.113327 280.283600,247.191879 283.055450,250.592896 
	C280.882111,253.093887 278.601135,255.272400 276.147400,257.736877 
	C274.151215,256.693420 272.327789,255.364014 270.166443,253.956085 
z"/>
<path fill="#4BD4E6" opacity="1.000000" stroke="none" 
	d="
M270.848572,237.671967 
	C268.454803,240.327011 265.887848,242.701309 262.930054,245.123169 
	C259.011353,241.724731 255.483459,238.278732 251.798859,234.518707 
	C254.222458,231.789032 256.802795,229.373398 259.733459,226.869156 
	C263.614349,230.317444 267.144867,233.854340 270.848572,237.671967 
z"/>
</svg>