<?xml version="1.0" encoding="utf-8"?>
<!-- Generator: Adobe Illustrator 26.0.1, SVG Export Plug-In . SVG Version: 6.00 Build 0)  -->
<svg version="1.1" id="Layer_1" xmlns="http://www.w3.org/2000/svg" xmlns:xlink="http://www.w3.org/1999/xlink" x="0px" y="0px"
	 viewBox="0 0 500 500" style="enable-background:new 0 0 500 500;" xml:space="preserve">
<style type="text/css">
	.st0{fill:none;stroke:#0F0F0F;stroke-width:2;stroke-miterlimit:10;}
	.st1{fill:#0F0F0F;}
	.st2{fill-rule:evenodd;clip-rule:evenodd;fill:#FFFFFF;}
	.st3{fill:none;stroke:#FFFFFF;stroke-width:2;stroke-miterlimit:10;}
	.st4{fill:#FFFFFF;}
	.st5{font-family:'BergenText-Bold';}
	.st6{font-size:76.8997px;}
</style>
<g>
	<g>
		<text transform="matrix(1 0 0 1 207.804 271.0697)" class="st4 st5 st6">0xxAI</text>
	</g>
	<g>
		<circle class="st3" cx="139.33" cy="250" r="58.76"/>
		<g>
			<path class="st4" d="M139.33,193.85c-31.01,0-56.15,25.14-56.15,56.15s25.14,56.15,56.15,56.15s56.15-25.14,56.15-56.15
				S170.34,193.85,139.33,193.85z M128.52,276.98l-11.81,11.81l-8.25-8.25c-4.41-4.41-4.41-11.6,0-16.01l12.58-12.58
				C121.04,264.53,135.52,267.41,128.52,276.98z M121.04,247.89l-12.58-12.58c-4.41-4.41-4.41-11.6,0-16.01l8.25-8.25l20.58,20.58
				C128.76,232.57,121.98,239.35,121.04,247.89z M170.19,280.53l-8.25,8.25l-11.81-11.81c-7-9.57,7.48-12.45,7.48-25.03l12.58,12.58
				C174.59,268.93,174.6,276.12,170.19,280.53z M170.19,235.31l-12.58,12.58c-0.94-8.54-7.72-15.32-16.26-16.26l20.58-20.58
				l8.25,8.25C174.6,223.71,174.6,230.9,170.19,235.31z"/>
		</g>
	</g>
</g>
</svg>
