<?xml version="1.0" standalone="no"?>
<!DOCTYPE svg PUBLIC "-//W3C//DTD SVG 20010904//EN"
 "http://www.w3.org/TR/2001/REC-SVG-20010904/DTD/svg10.dtd">
<svg version="1.0" xmlns="http://www.w3.org/2000/svg"
 width="4862.000000pt" height="4862.000000pt" viewBox="0 0 4862.000000 4862.000000"
 preserveAspectRatio="xMidYMid meet">

<g transform="translate(0.000000,4862.000000) scale(0.100000,-0.100000)"
fill="#000000" stroke="none">
<path d="M0 24310 l0 -24310 24310 0 24310 0 0 24310 0 24310 -24310 0 -24310
0 0 -24310z m24440 11181 c23 -11 2169 -1248 4768 -2748 3061 -1767 4738
-2742 4764 -2766 22 -22 52 -64 66 -95 l27 -57 0 -5530 0 -5530 -27 -55 c-15
-30 -44 -72 -65 -92 -23 -22 -1878 -1098 -4728 -2744 -2579 -1489 -4723 -2725
-4764 -2747 -64 -35 -85 -41 -152 -45 -54 -3 -91 0 -122 11 -25 8 -2179 1247
-4786 2752 -3294 1902 -4753 2749 -4780 2777 -48 47 -78 106 -91 179 -7 36 -9
1889 -8 5534 l3 5480 31 66 c20 41 47 79 75 103 54 47 9496 5500 9559 5521 61
20 174 13 230 -14z"/>
<path d="M23035 31164 c-367 -7 -1026 -25 -1240 -34 -538 -24 -993 -65 -1021
-93 -3 -2 237 -422 532 -933 805 -1394 1436 -2486 1453 -2517 9 -15 22 -25 30
-22 26 10 915 25 1511 25 661 0 1447 -14 1715 -30 541 -33 1148 -143 1735
-315 1260 -368 2403 -1003 3420 -1899 142 -125 544 -521 665 -654 50 -55 92
-98 94 -96 41 37 -2019 3683 -2999 5309 -357 592 -461 744 -572 843 -201 177
-432 284 -693 322 -217 32 -660 57 -1410 81 -303 10 -2850 20 -3220 13z"/>
<path d="M20214 30698 c-580 -633 -2957 -4731 -3439 -5929 -125 -311 -119
-650 20 -1024 54 -148 217 -475 361 -728 70 -122 283 -478 472 -792 679 -1123
955 -1603 1672 -2905 457 -829 666 -1159 887 -1399 l69 -74 516 894 c284 492
526 912 538 934 12 22 39 69 60 105 267 463 595 1031 726 1258 90 156 164 285
164 287 0 2 -29 48 -63 102 -352 545 -1423 2428 -1619 2848 -416 889 -670
1894 -760 3000 -20 250 -17 1018 5 1275 61 697 161 1249 342 1875 35 121 71
240 79 264 9 24 15 46 13 48 -2 2 -22 -16 -43 -39z"/>
<path d="M27859 23883 c-271 -513 -1039 -1844 -1377 -2388 -395 -637 -729
-1056 -1239 -1555 -971 -951 -2105 -1646 -3402 -2084 -327 -111 -849 -255
-1018 -282 -24 -4 -43 -10 -43 -14 0 -15 259 -51 540 -74 684 -59 1628 -86
2975 -86 1305 0 2167 23 2885 76 396 29 577 55 715 104 333 118 578 325 825
694 240 360 327 515 2600 4621 298 539 558 1008 577 1043 l35 62 -2005 0
-2005 0 -63 -117z"/>
</g>
</svg>
