<?xml version="1.0" standalone="no"?>
<!DOCTYPE svg PUBLIC "-//W3C//DTD SVG 20010904//EN"
 "http://www.w3.org/TR/2001/REC-SVG-20010904/DTD/svg10.dtd">
<svg version="1.0" xmlns="http://www.w3.org/2000/svg"
 width="4862.000000pt" height="4862.000000pt" viewBox="0 0 4862.000000 4862.000000"
 preserveAspectRatio="xMidYMid meet">

<g transform="translate(0.000000,4862.000000) scale(0.100000,-0.100000)"
fill="#000000" stroke="none">
<path d="M11825 27343 c-303 -9 -649 -34 -664 -48 -2 -2 95 -174 215 -382 120
-208 318 -551 440 -762 l222 -385 694 -1 c449 -1 735 -6 813 -14 466 -46 919
-178 1346 -391 415 -208 739 -446 1076 -790 68 -69 123 -121 123 -116 0 34
-568 1051 -1028 1841 -368 631 -492 828 -556 879 -157 127 -246 146 -796 166
-229 9 -1626 11 -1885 3z"/>
<path d="M10853 27068 c-292 -390 -979 -1560 -1322 -2250 -157 -315 -176 -368
-175 -503 0 -203 59 -331 440 -961 230 -380 395 -666 651 -1129 110 -198 226
-403 257 -455 110 -180 216 -314 234 -295 6 6 113 188 237 405 125 217 322
558 437 758 l209 362 -64 103 c-124 197 -450 763 -590 1025 -141 260 -247 540
-322 842 -162 662 -148 1343 41 2018 26 90 44 165 41 168 -3 3 -36 -37 -74
-88z"/>
<path d="M14289 24128 c-45 -89 -220 -398 -401 -708 -302 -517 -432 -700 -678
-954 -167 -172 -288 -279 -482 -424 -409 -307 -915 -544 -1438 -672 -160 -40
-157 -42 85 -65 305 -28 670 -38 1350 -38 861 0 1402 24 1555 69 171 50 299
162 438 383 46 72 201 344 346 604 449 807 1015 1831 1022 1850 6 16 -40 17
-880 17 l-886 0 -31 -62z"/>
</g>
</svg>
